<mxfile host="app.diagrams.net" modified="2024-09-18T03:00:00.000Z" agent="5.0" etag="xxx" version="21.6.5" type="device">
  <diagram name="Hadoop生态系统RPC协议" id="hadoop-rpc-protocols">
    <mxGraphModel dx="1422" dy="794" grid="1" gridSize="10" guides="1" tooltips="1" connect="1" arrows="1" fold="1" page="1" pageScale="1" pageWidth="1169" pageHeight="827" math="0" shadow="0">
      <root>
        <mxCell id="0" />
        <mxCell id="1" parent="0" />
        
        <!-- 标题 -->
        <mxCell id="title" value="Hadoop生态系统RPC协议详解" style="text;html=1;strokeColor=none;fillColor=none;align=center;verticalAlign=middle;whiteSpace=wrap;rounded=0;fontSize=18;fontStyle=1;fontColor=#2c3e50;" vertex="1" parent="1">
          <mxGeometry x="400" y="20" width="350" height="40" as="geometry" />
        </mxCell>
        
        <!-- HDFS协议区域 -->
        <mxCell id="hdfs-protocols" value="HDFS RPC协议" style="rounded=1;whiteSpace=wrap;html=1;fillColor=#e1d5e7;strokeColor=#9673a6;fontSize=16;fontStyle=1;verticalAlign=top;" vertex="1" parent="1">
          <mxGeometry x="80" y="80" width="450" height="280" as="geometry" />
        </mxCell>
        
        <!-- ClientNamenodeProtocol -->
        <mxCell id="client-namenode" value="ClientNamenodeProtocol" style="rounded=1;whiteSpace=wrap;html=1;fillColor=#dae8fc;strokeColor=#6c8ebf;fontSize=12;fontStyle=1;" vertex="1" parent="1">
          <mxGeometry x="120" y="120" width="160" height="40" as="geometry" />
        </mxCell>
        
        <!-- ClientNamenodeProtocol方法 -->
        <mxCell id="client-methods" value="• create()&#xa;• append()&#xa;• setReplication()&#xa;• delete()&#xa;• mkdirs()&#xa;• getListing()&#xa;• getFsStats()" style="rounded=1;whiteSpace=wrap;html=1;fillColor=#e8f4fd;strokeColor=#6c8ebf;fontSize=10;align=left;" vertex="1" parent="1">
          <mxGeometry x="120" y="170" width="160" height="100" as="geometry" />
        </mxCell>
        
        <!-- DatanodeProtocol -->
        <mxCell id="datanode-protocol" value="DatanodeProtocol" style="rounded=1;whiteSpace=wrap;html=1;fillColor=#d5e8d4;strokeColor=#82b366;fontSize=12;fontStyle=1;" vertex="1" parent="1">
          <mxGeometry x="320" y="120" width="160" height="40" as="geometry" />
        </mxCell>
        
        <!-- DatanodeProtocol方法 -->
        <mxCell id="datanode-methods" value="• sendHeartbeat()&#xa;• blockReport()&#xa;• blockReceivedAndDeleted()&#xa;• errorReport()&#xa;• registerDatanode()&#xa;• versionRequest()" style="rounded=1;whiteSpace=wrap;html=1;fillColor=#e8f5e8;strokeColor=#82b366;fontSize=10;align=left;" vertex="1" parent="1">
          <mxGeometry x="320" y="170" width="160" height="100" as="geometry" />
        </mxCell>
        
        <!-- DatanodeLifelineProtocol -->
        <mxCell id="lifeline-protocol" value="DatanodeLifelineProtocol" style="rounded=1;whiteSpace=wrap;html=1;fillColor=#fff2cc;strokeColor=#d6b656;fontSize=12;fontStyle=1;" vertex="1" parent="1">
          <mxGeometry x="220" y="290" width="160" height="40" as="geometry" />
        </mxCell>
        
        <!-- Lifeline说明 -->
        <mxCell id="lifeline-desc" value="独立健康检查&#xa;防止资源耗尽" style="rounded=1;whiteSpace=wrap;html=1;fillColor=#fff8e1;strokeColor=#d6b656;fontSize=10;" vertex="1" parent="1">
          <mxGeometry x="220" y="340" width="160" height="30" as="geometry" />
        </mxCell>
        
        <!-- YARN协议区域 -->
        <mxCell id="yarn-protocols" value="YARN RPC协议" style="rounded=1;whiteSpace=wrap;html=1;fillColor=#e1d5e7;strokeColor=#9673a6;fontSize=16;fontStyle=1;verticalAlign=top;" vertex="1" parent="1">
          <mxGeometry x="580" y="80" width="450" height="280" as="geometry" />
        </mxCell>
        
        <!-- ApplicationClientProtocol -->
        <mxCell id="app-client-protocol" value="ApplicationClientProtocol" style="rounded=1;whiteSpace=wrap;html=1;fillColor=#dae8fc;strokeColor=#6c8ebf;fontSize=12;fontStyle=1;" vertex="1" parent="1">
          <mxGeometry x="620" y="120" width="160" height="40" as="geometry" />
        </mxCell>
        
        <!-- ApplicationClientProtocol方法 -->
        <mxCell id="app-client-methods" value="• submitApplication()&#xa;• getApplicationReport()&#xa;• killApplication()&#xa;• getClusterMetrics()&#xa;• getQueueInfo()" style="rounded=1;whiteSpace=wrap;html=1;fillColor=#e8f4fd;strokeColor=#6c8ebf;fontSize=10;align=left;" vertex="1" parent="1">
          <mxGeometry x="620" y="170" width="160" height="80" as="geometry" />
        </mxCell>
        
        <!-- ApplicationMasterProtocol -->
        <mxCell id="app-master-protocol" value="ApplicationMasterProtocol" style="rounded=1;whiteSpace=wrap;html=1;fillColor=#d5e8d4;strokeColor=#82b366;fontSize=12;fontStyle=1;" vertex="1" parent="1">
          <mxGeometry x="820" y="120" width="160" height="40" as="geometry" />
        </mxCell>
        
        <!-- ApplicationMasterProtocol方法 -->
        <mxCell id="app-master-methods" value="• registerApplicationMaster()&#xa;• allocate()&#xa;• finishApplicationMaster()&#xa;• getContainerStatuses()" style="rounded=1;whiteSpace=wrap;html=1;fillColor=#e8f5e8;strokeColor=#82b366;fontSize=10;align=left;" vertex="1" parent="1">
          <mxGeometry x="820" y="170" width="160" height="80" as="geometry" />
        </mxCell>
        
        <!-- ContainerManagementProtocol -->
        <mxCell id="container-mgmt" value="ContainerManagementProtocol" style="rounded=1;whiteSpace=wrap;html=1;fillColor=#fff2cc;strokeColor=#d6b656;fontSize=12;fontStyle=1;" vertex="1" parent="1">
          <mxGeometry x="720" y="270" width="180" height="40" as="geometry" />
        </mxCell>
        
        <!-- ContainerManagementProtocol方法 -->
        <mxCell id="container-methods" value="• startContainers()&#xa;• stopContainers()&#xa;• getContainerStatuses()" style="rounded=1;whiteSpace=wrap;html=1;fillColor=#fff8e1;strokeColor=#d6b656;fontSize=10;align=left;" vertex="1" parent="1">
          <mxGeometry x="720" y="320" width="180" height="50" as="geometry" />
        </mxCell>
        
        <!-- 协议特性说明 -->
        <mxCell id="protocol-features" value="协议特性对比" style="text;html=1;strokeColor=none;fillColor=none;align=center;verticalAlign=middle;whiteSpace=wrap;rounded=0;fontSize=16;fontStyle=1;fontColor=#2c3e50;" vertex="1" parent="1">
          <mxGeometry x="450" y="400" width="200" height="30" as="geometry" />
        </mxCell>
        
        <!-- 特性表格 -->
        <mxCell id="feature-table" value="" style="rounded=1;whiteSpace=wrap;html=1;fillColor=#f8f9fa;strokeColor=#dee2e6;" vertex="1" parent="1">
          <mxGeometry x="200" y="450" width="700" height="200" as="geometry" />
        </mxCell>
        
        <!-- 表头 -->
        <mxCell id="table-protocol" value="协议名称" style="rounded=1;whiteSpace=wrap;html=1;fillColor=#34495e;strokeColor=#2c3e50;fontSize=12;fontStyle=1;fontColor=#ffffff;" vertex="1" parent="1">
          <mxGeometry x="220" y="470" width="120" height="30" as="geometry" />
        </mxCell>
        
        <mxCell id="table-purpose" value="主要用途" style="rounded=1;whiteSpace=wrap;html=1;fillColor=#34495e;strokeColor=#2c3e50;fontSize=12;fontStyle=1;fontColor=#ffffff;" vertex="1" parent="1">
          <mxGeometry x="340" y="470" width="120" height="30" as="geometry" />
        </mxCell>
        
        <mxCell id="table-participants" value="参与组件" style="rounded=1;whiteSpace=wrap;html=1;fillColor=#34495e;strokeColor=#2c3e50;fontSize=12;fontStyle=1;fontColor=#ffffff;" vertex="1" parent="1">
          <mxGeometry x="460" y="470" width="120" height="30" as="geometry" />
        </mxCell>
        
        <mxCell id="table-frequency" value="调用频率" style="rounded=1;whiteSpace=wrap;html=1;fillColor=#34495e;strokeColor=#2c3e50;fontSize=12;fontStyle=1;fontColor=#ffffff;" vertex="1" parent="1">
          <mxGeometry x="580" y="470" width="120" height="30" as="geometry" />
        </mxCell>
        
        <mxCell id="table-criticality" value="重要程度" style="rounded=1;whiteSpace=wrap;html=1;fillColor=#34495e;strokeColor=#2c3e50;fontSize=12;fontStyle=1;fontColor=#ffffff;" vertex="1" parent="1">
          <mxGeometry x="700" y="470" width="120" height="30" as="geometry" />
        </mxCell>
        
        <!-- ClientNamenodeProtocol行 -->
        <mxCell id="row1-protocol" value="ClientNamenode&#xa;Protocol" style="rounded=1;whiteSpace=wrap;html=1;fillColor=#e8f4fd;strokeColor=#6c8ebf;fontSize=10;" vertex="1" parent="1">
          <mxGeometry x="220" y="500" width="120" height="30" as="geometry" />
        </mxCell>
        
        <mxCell id="row1-purpose" value="文件系统操作" style="rounded=1;whiteSpace=wrap;html=1;fillColor=#f8f9fa;strokeColor=#dee2e6;fontSize=10;" vertex="1" parent="1">
          <mxGeometry x="340" y="500" width="120" height="30" as="geometry" />
        </mxCell>
        
        <mxCell id="row1-participants" value="Client-NameNode" style="rounded=1;whiteSpace=wrap;html=1;fillColor=#f8f9fa;strokeColor=#dee2e6;fontSize=10;" vertex="1" parent="1">
          <mxGeometry x="460" y="500" width="120" height="30" as="geometry" />
        </mxCell>
        
        <mxCell id="row1-frequency" value="高频" style="rounded=1;whiteSpace=wrap;html=1;fillColor=#f8f9fa;strokeColor=#dee2e6;fontSize=10;" vertex="1" parent="1">
          <mxGeometry x="580" y="500" width="120" height="30" as="geometry" />
        </mxCell>
        
        <mxCell id="row1-criticality" value="核心" style="rounded=1;whiteSpace=wrap;html=1;fillColor=#d5f4e6;strokeColor=#27ae60;fontSize=10;" vertex="1" parent="1">
          <mxGeometry x="700" y="500" width="120" height="30" as="geometry" />
        </mxCell>
        
        <!-- DatanodeProtocol行 -->
        <mxCell id="row2-protocol" value="Datanode&#xa;Protocol" style="rounded=1;whiteSpace=wrap;html=1;fillColor=#e8f5e8;strokeColor=#82b366;fontSize=10;" vertex="1" parent="1">
          <mxGeometry x="220" y="530" width="120" height="30" as="geometry" />
        </mxCell>
        
        <mxCell id="row2-purpose" value="心跳和块报告" style="rounded=1;whiteSpace=wrap;html=1;fillColor=#f8f9fa;strokeColor=#dee2e6;fontSize=10;" vertex="1" parent="1">
          <mxGeometry x="340" y="530" width="120" height="30" as="geometry" />
        </mxCell>
        
        <mxCell id="row2-participants" value="DataNode-NameNode" style="rounded=1;whiteSpace=wrap;html=1;fillColor=#f8f9fa;strokeColor=#dee2e6;fontSize=10;" vertex="1" parent="1">
          <mxGeometry x="460" y="530" width="120" height="30" as="geometry" />
        </mxCell>
        
        <mxCell id="row2-frequency" value="定期" style="rounded=1;whiteSpace=wrap;html=1;fillColor=#f8f9fa;strokeColor=#dee2e6;fontSize=10;" vertex="1" parent="1">
          <mxGeometry x="580" y="530" width="120" height="30" as="geometry" />
        </mxCell>
        
        <mxCell id="row2-criticality" value="核心" style="rounded=1;whiteSpace=wrap;html=1;fillColor=#d5f4e6;strokeColor=#27ae60;fontSize=10;" vertex="1" parent="1">
          <mxGeometry x="700" y="530" width="120" height="30" as="geometry" />
        </mxCell>
        
        <!-- ApplicationClientProtocol行 -->
        <mxCell id="row3-protocol" value="ApplicationClient&#xa;Protocol" style="rounded=1;whiteSpace=wrap;html=1;fillColor=#e8f4fd;strokeColor=#6c8ebf;fontSize=10;" vertex="1" parent="1">
          <mxGeometry x="220" y="560" width="120" height="30" as="geometry" />
        </mxCell>
        
        <mxCell id="row3-purpose" value="应用管理" style="rounded=1;whiteSpace=wrap;html=1;fillColor=#f8f9fa;strokeColor=#dee2e6;fontSize=10;" vertex="1" parent="1">
          <mxGeometry x="340" y="560" width="120" height="30" as="geometry" />
        </mxCell>
        
        <mxCell id="row3-participants" value="Client-ResourceManager" style="rounded=1;whiteSpace=wrap;html=1;fillColor=#f8f9fa;strokeColor=#dee2e6;fontSize=10;" vertex="1" parent="1">
          <mxGeometry x="460" y="560" width="120" height="30" as="geometry" />
        </mxCell>
        
        <mxCell id="row3-frequency" value="中频" style="rounded=1;whiteSpace=wrap;html=1;fillColor=#f8f9fa;strokeColor=#dee2e6;fontSize=10;" vertex="1" parent="1">
          <mxGeometry x="580" y="560" width="120" height="30" as="geometry" />
        </mxCell>
        
        <mxCell id="row3-criticality" value="重要" style="rounded=1;whiteSpace=wrap;html=1;fillColor=#fff3cd;strokeColor=#ffc107;fontSize=10;" vertex="1" parent="1">
          <mxGeometry x="700" y="560" width="120" height="30" as="geometry" />
        </mxCell>
        
        <!-- ApplicationMasterProtocol行 -->
        <mxCell id="row4-protocol" value="ApplicationMaster&#xa;Protocol" style="rounded=1;whiteSpace=wrap;html=1;fillColor=#e8f5e8;strokeColor=#82b366;fontSize=10;" vertex="1" parent="1">
          <mxGeometry x="220" y="590" width="120" height="30" as="geometry" />
        </mxCell>
        
        <mxCell id="row4-purpose" value="资源申请" style="rounded=1;whiteSpace=wrap;html=1;fillColor=#f8f9fa;strokeColor=#dee2e6;fontSize=10;" vertex="1" parent="1">
          <mxGeometry x="340" y="590" width="120" height="30" as="geometry" />
        </mxCell>
        
        <mxCell id="row4-participants" value="AM-ResourceManager" style="rounded=1;whiteSpace=wrap;html=1;fillColor=#f8f9fa;strokeColor=#dee2e6;fontSize=10;" vertex="1" parent="1">
          <mxGeometry x="460" y="590" width="120" height="30" as="geometry" />
        </mxCell>
        
        <mxCell id="row4-frequency" value="高频" style="rounded=1;whiteSpace=wrap;html=1;fillColor=#f8f9fa;strokeColor=#dee2e6;fontSize=10;" vertex="1" parent="1">
          <mxGeometry x="580" y="590" width="120" height="30" as="geometry" />
        </mxCell>
        
        <mxCell id="row4-criticality" value="核心" style="rounded=1;whiteSpace=wrap;html=1;fillColor=#d5f4e6;strokeColor=#27ae60;fontSize=10;" vertex="1" parent="1">
          <mxGeometry x="700" y="590" width="120" height="30" as="geometry" />
        </mxCell>
        
        <!-- ContainerManagementProtocol行 -->
        <mxCell id="row5-protocol" value="ContainerMgmt&#xa;Protocol" style="rounded=1;whiteSpace=wrap;html=1;fillColor=#fff8e1;strokeColor=#d6b656;fontSize=10;" vertex="1" parent="1">
          <mxGeometry x="220" y="620" width="120" height="30" as="geometry" />
        </mxCell>
        
        <mxCell id="row5-purpose" value="容器管理" style="rounded=1;whiteSpace=wrap;html=1;fillColor=#f8f9fa;strokeColor=#dee2e6;fontSize=10;" vertex="1" parent="1">
          <mxGeometry x="340" y="620" width="120" height="30" as="geometry" />
        </mxCell>
        
        <mxCell id="row5-participants" value="AM-NodeManager" style="rounded=1;whiteSpace=wrap;html=1;fillColor=#f8f9fa;strokeColor=#dee2e6;fontSize=10;" vertex="1" parent="1">
          <mxGeometry x="460" y="620" width="120" height="30" as="geometry" />
        </mxCell>
        
        <mxCell id="row5-frequency" value="中频" style="rounded=1;whiteSpace=wrap;html=1;fillColor=#f8f9fa;strokeColor=#dee2e6;fontSize=10;" vertex="1" parent="1">
          <mxGeometry x="580" y="620" width="120" height="30" as="geometry" />
        </mxCell>
        
        <mxCell id="row5-criticality" value="重要" style="rounded=1;whiteSpace=wrap;html=1;fillColor=#fff3cd;strokeColor=#ffc107;fontSize=10;" vertex="1" parent="1">
          <mxGeometry x="700" y="620" width="120" height="30" as="geometry" />
        </mxCell>
        
        <!-- 连接线 -->
        <!-- HDFS内部连接 -->
        <mxCell id="hdfs-conn1" value="" style="endArrow=classic;startArrow=classic;html=1;rounded=0;strokeWidth=2;strokeColor=#6c8ebf;" edge="1" parent="1">
          <mxGeometry width="50" height="50" relative="1" as="geometry">
            <mxPoint x="200" y="180" as="sourcePoint" />
            <mxPoint x="200" y="160" as="targetPoint" />
          </mxGeometry>
        </mxCell>
        
        <mxCell id="hdfs-conn2" value="" style="endArrow=classic;startArrow=classic;html=1;rounded=0;strokeWidth=2;strokeColor=#82b366;" edge="1" parent="1">
          <mxGeometry width="50" height="50" relative="1" as="geometry">
            <mxPoint x="400" y="180" as="sourcePoint" />
            <mxPoint x="400" y="160" as="targetPoint" />
          </mxGeometry>
        </mxCell>
        
        <!-- YARN内部连接 -->
        <mxCell id="yarn-conn1" value="" style="endArrow=classic;startArrow=classic;html=1;rounded=0;strokeWidth=2;strokeColor=#6c8ebf;" edge="1" parent="1">
          <mxGeometry width="50" height="50" relative="1" as="geometry">
            <mxPoint x="700" y="170" as="sourcePoint" />
            <mxPoint x="700" y="160" as="targetPoint" />
          </mxGeometry>
        </mxCell>
        
        <mxCell id="yarn-conn2" value="" style="endArrow=classic;startArrow=classic;html=1;rounded=0;strokeWidth=2;strokeColor=#82b366;" edge="1" parent="1">
          <mxGeometry width="50" height="50" relative="1" as="geometry">
            <mxPoint x="900" y="170" as="sourcePoint" />
            <mxPoint x="900" y="160" as="targetPoint" />
          </mxGeometry>
        </mxCell>
        
      </root>
    </mxGraphModel>
  </diagram>
</mxfile>
